<svg xmlns="http://www.w3.org/2000/svg" width="32" height="32" viewBox="0 0 32 32" fill="none">
  <g clip-path="url(#clip0_13_1776)">
    <path d="M13.5 21L12.5 21H9L6 27H26L23 21H19.5L18.5 21" stroke="#222222"/>
    <circle cx="16" cy="13" r="2.5" stroke="#222222"/>
    <path d="M22.5 13C22.5 15.318 20.9738 17.9513 19.2959 20.0641C18.4679 21.1068 17.6249 21.9955 16.9617 22.6205C16.6296 22.9336 16.3476 23.1757 16.1391 23.3364C16.086 23.3773 16.0396 23.4115 16 23.4392C15.9604 23.4115 15.914 23.3773 15.8609 23.3364C15.6524 23.1757 15.3704 22.9336 15.0383 22.6205C14.3751 21.9955 13.5321 21.1068 12.7041 20.0641C11.0262 17.9513 9.5 15.318 9.5 13C9.5 9.41015 12.4101 6.5 16 6.5C19.5899 6.5 22.5 9.41015 22.5 13Z" stroke="#222222"/>
  </g>
  <defs>
    <clipPath id="clip0_13_1776">
      <rect width="32" height="32" fill="white"/>
    </clipPath>
  </defs>
</svg>