<svg width="16" height="16" viewBox="0 0 16 16" fill="none" xmlns="http://www.w3.org/2000/svg">
<g clip-path="url(#clip0_13_2881)">
<rect width="16" height="16" rx="8" fill="#none"/>
<path fill-rule="evenodd" clip-rule="evenodd" d="M5.5 3C4.39543 3 3.5 3.89543 3.5 5V10.1667C3.5 10.8648 3.85768 11.4793 4.39978 11.8371V12.5002C4.39978 12.7763 4.62364 13.0002 4.89978 13.0002H5.69978C5.97592 13.0002 6.19978 12.7763 6.19978 12.5002V12.1667H9.79984V12.5002C9.79984 12.7763 10.0237 13.0002 10.2998 13.0002H11.0998C11.376 13.0002 11.5998 12.7763 11.5998 12.5002V11.8374C12.1421 11.4796 12.5 10.8649 12.5 10.1667V5C12.5 3.89543 11.6046 3 10.5 3H5.5ZM11.5998 4.6665H4.39978V7.99984H11.5998V4.6665ZM11.5998 10.4998C11.5998 10.9601 11.1969 11.3332 10.6998 11.3332C10.2028 11.3332 9.79984 10.9601 9.79984 10.4998C9.79984 10.0396 10.2028 9.6665 10.6998 9.6665C11.1969 9.6665 11.5998 10.0396 11.5998 10.4998ZM5.29978 11.3332C5.79684 11.3332 6.19978 10.9601 6.19978 10.4998C6.19978 10.0396 5.79684 9.6665 5.29978 9.6665C4.80272 9.6665 4.39978 10.0396 4.39978 10.4998C4.39978 10.9601 4.80272 11.3332 5.29978 11.3332Z" fill="white"/>
</g>
<defs>
<clipPath id="clip0_13_2881">
<rect width="16" height="16" fill="white"/>
</clipPath>
</defs>
</svg>
