<svg id='phone' xmlns="http://www.w3.org/2000/svg" width="32" height="32" viewBox="0 0 32 32" fill="none">
  <path fill-rule="evenodd" clip-rule="evenodd"
    d="M12.8388 18.9246C10.7211 16.8069 9.13204 14.5924 8.2668 12.7383C7.83326 11.8093 7.59344 10.9962 7.54441 10.3462C7.49523 9.69401 7.64037 9.27384 7.88909 9.02513L11.0711 5.84315L14.6066 9.37868L15.4905 10.2626L13.0156 12.7374L12.7061 13.047L12.972 13.3947L13.6502 14.2816C14.7522 15.7228 16.0407 17.0112 17.4818 18.1132L18.3687 18.7915L18.7165 19.0574L19.026 18.7478L21.5009 16.273L22.3848 17.1569L25.9203 20.6924L22.7383 23.8744C22.4896 24.1231 22.0694 24.2682 21.4173 24.219C20.7673 24.17 19.9542 23.9302 19.0252 23.4967C17.1711 22.6314 14.9566 21.0424 12.8388 18.9246ZM7.18198 8.31802L10.7175 4.78249L11.0711 4.42893L11.4246 4.78249L15.3137 8.67157L16.5511 9.90901L16.9047 10.2626L16.5511 10.6161L14.0323 13.135L14.4446 13.6742C15.4928 15.045 16.7185 16.2706 18.0893 17.3189L18.6285 17.7312L21.1473 15.2123L21.5009 14.8588L21.8544 15.2123L23.0919 16.4497L26.981 20.3388L27.3345 20.6924L26.981 21.0459L23.4454 24.5815C22.9131 25.1138 22.1539 25.2774 21.3421 25.2162C20.5281 25.1548 19.5927 24.865 18.6023 24.4028C16.6175 23.4766 14.3098 21.8098 12.1317 19.6317C9.9537 17.4537 8.28684 15.1459 7.36062 13.1612C6.89843 12.1708 6.60864 11.2353 6.54725 10.4214C6.48602 9.60956 6.64964 8.85036 7.18198 8.31802Z"
    fill="#222222" />
</svg>