<svg xmlns="http://www.w3.org/2000/svg" width="32" height="32" viewBox="0 0 32 32" fill="none">
  <path d="M13.4331 26.0401C13.8786 26.0401 14.2398 25.6789 14.2398 25.2334C14.2398 24.7879 13.8786 24.4268 13.4331 24.4268C12.9876 24.4268 12.6265 24.7879 12.6265 25.2334C12.6265 25.6789 12.9876 26.0401 13.4331 26.0401Z" fill="#222222"/>
  <path d="M30.7666 20.0401C31.2121 20.0401 31.5733 19.6789 31.5733 19.2334C31.5733 18.7879 31.2121 18.4268 30.7666 18.4268C30.3211 18.4268 29.96 18.7879 29.96 19.2334C29.96 19.6789 30.3211 20.0401 30.7666 20.0401Z" fill="#222222"/>
  <path d="M28.7666 8.70708C29.2121 8.70708 29.5733 8.34593 29.5733 7.90042C29.5733 7.45491 29.2121 7.09375 28.7666 7.09375C28.3211 7.09375 27.96 7.45491 27.96 7.90042C27.96 8.34593 28.3211 8.70708 28.7666 8.70708Z" fill="#222222"/>
  <path d="M28.7666 24.7071C29.2121 24.7071 29.5733 24.3459 29.5733 23.9004C29.5733 23.4549 29.2121 23.0938 28.7666 23.0938C28.3211 23.0938 27.96 23.4549 27.96 23.9004C27.96 24.3459 28.3211 24.7071 28.7666 24.7071Z" fill="#222222"/>
  <path d="M10.1001 8.70708C10.5456 8.70708 10.9068 8.34593 10.9068 7.90042C10.9068 7.45491 10.5456 7.09375 10.1001 7.09375C9.65461 7.09375 9.29346 7.45491 9.29346 7.90042C9.29346 8.34593 9.65461 8.70708 10.1001 8.70708Z" fill="#222222"/>
  <path d="M14.6133 6.59967C15.3067 5.82634 16.3133 5.33301 17.44 5.33301C19.5333 5.33301 21.2267 7.02634 21.2267 9.11967C21.2267 11.213 19.5333 12.9063 17.44 12.9063H6.17334" stroke="#222222" stroke-width="0.666667" stroke-miterlimit="10"/>
  <path d="M19.1599 25.7335C19.6666 26.3068 20.3999 26.6668 21.2266 26.6668C22.7466 26.6668 23.9799 25.4335 23.9799 23.9135C23.9799 22.3935 22.7466 21.1602 21.2266 21.1602H3.41992" stroke="#222222" stroke-width="0.666667" stroke-miterlimit="10"/>
  <path d="M24.7865 12.333C25.2865 11.833 25.9732 11.5264 26.7332 11.5264C28.2532 11.5264 29.4865 12.7597 29.4865 14.2797C29.4865 15.7997 28.2532 17.033 26.7332 17.033H0.666504" stroke="#222222" stroke-width="0.666667" stroke-miterlimit="10"/>
</svg>