<svg xmlns="http://www.w3.org/2000/svg" width="24" height="24" viewBox="0 0 24 24" fill="none">
  <g clip-path="url(#clip0_13_1912)">
    <path d="M7 3L12.1069 8.10688L10.5768 9.63701C10.2345 9.97922 10.1865 10.5174 10.4627 10.9148L11.0826 11.8069C11.4223 12.2957 11.8465 12.7199 12.3353 13.0595L13.2274 13.6795C13.6248 13.9556 14.1629 13.9076 14.5051 13.5654L16.0353 12.0353L21.1421 17.1421L18.6386 19.6457C17.6274 20.6569 16.043 20.8138 14.8531 20.0205L10.9104 17.392C9.26258 16.2935 7.84864 14.8796 6.75011 13.2318L4.1216 9.289C3.32835 8.09913 3.48523 6.51477 4.49643 5.50357L7 3Z" fill="#666666"/>
  </g>
  <defs>
    <clipPath id="clip0_13_1912">
      <rect width="24" height="24" fill="white"/>
    </clipPath>
  </defs>
</svg>